# xmcd
#
# Track frame offsets: 
#        150
#        13059
#        26928
#        42047
#        56437
#        70549
#        82565
#        96508
#        112143
#        125105
#        139173
#        151870
#        166387
#        180112
#        193819
#        208208
#        221114
#        236120
#
# Disc length: 3341 seconds
#
# Revision: 0
# Processed by: cddbd v1.5.2PL0 Copyright (c) Steve Scherf et al.
# Submitted via: ExactAudioCopy v1.0b1
#
DISCID=000d0b12
DTITLE=Kapela Polska - Oto Polska właśnie 4. Najpiekniejsze Krakowiaki
DYEAR=1900
DGENRE=
TTITLE0=Nie chodź Maryś do lasa
TTITLE1=Poszła Karolinka do Gogolina
TTITLE2=Albośmy to jacy tacy
TTITLE3=Flioriańska brama
TTITLE4=Hej tam od Krakowa
TTITLE5=Jadą goście jadą
TTITLE6=Krakowiaczek jeden
TTITLE7=Leć głosie po lesie
TTITLE8=Spod Racławic
TTITLE9=Hej tam od Krakowa jadę
TTITLE10=Młodzian
TTITLE11=Na Wawel, na Wawel
TTITLE12=Płynie Wisła płynie
TTITLE13=Z okolic Krakowa
TTITLE14=Wspomnienia z Ojcowa
TTITLE15=Płynie z Krakowa piosenka
TTITLE16=Znad Wisły
TTITLE17=Wawelski smok
EXTD=
EXTT0=
EXTT1=
EXTT2=
EXTT3=
EXTT4=
EXTT5=
EXTT6=
EXTT7=
EXTT8=
EXTT9=
EXTT10=
EXTT11=
EXTT12=
EXTT13=
EXTT14=
EXTT15=
EXTT16=
EXTT17=
PLAYORDER=
